<?xml version="1.0" standalone="no"?>
<svg xmlns:xlink="http://www.w3.org/1999/xlink" id="wave" style="transform:rotate(0deg); transition: 0.3s" viewBox="0 0 1440 100" version="1.1" xmlns="http://www.w3.org/2000/svg"><defs><linearGradient id="sw-gradient-0" x1="0" x2="0" y1="1" y2="0"><stop stop-color="rgba(255, 255, 255, 1)" offset="0%"/><stop stop-color="rgba(255, 255, 255, 1)" offset="100%"/></linearGradient></defs><path style="transform:translate(0, 0px); opacity:1" fill="url(#sw-gradient-0)" d="M0,20L80,30C160,40,320,60,480,56.7C640,53,800,27,960,23.3C1120,20,1280,40,1440,51.7C1600,63,1760,67,1920,65C2080,63,2240,57,2400,48.3C2560,40,2720,30,2880,30C3040,30,3200,40,3360,38.3C3520,37,3680,23,3840,18.3C4000,13,4160,17,4320,23.3C4480,30,4640,40,4800,48.3C4960,57,5120,63,5280,68.3C5440,73,5600,77,5760,75C5920,73,6080,67,6240,61.7C6400,57,6560,53,6720,55C6880,57,7040,63,7200,55C7360,47,7520,23,7680,16.7C7840,10,8000,20,8160,25C8320,30,8480,30,8640,25C8800,20,8960,10,9120,16.7C9280,23,9440,47,9600,51.7C9760,57,9920,43,10080,33.3C10240,23,10400,17,10560,16.7C10720,17,10880,23,11040,26.7C11200,30,11360,30,11440,30L11520,30L11520,100L11440,100C11360,100,11200,100,11040,100C10880,100,10720,100,10560,100C10400,100,10240,100,10080,100C9920,100,9760,100,9600,100C9440,100,9280,100,9120,100C8960,100,8800,100,8640,100C8480,100,8320,100,8160,100C8000,100,7840,100,7680,100C7520,100,7360,100,7200,100C7040,100,6880,100,6720,100C6560,100,6400,100,6240,100C6080,100,5920,100,5760,100C5600,100,5440,100,5280,100C5120,100,4960,100,4800,100C4640,100,4480,100,4320,100C4160,100,4000,100,3840,100C3680,100,3520,100,3360,100C3200,100,3040,100,2880,100C2720,100,2560,100,2400,100C2240,100,2080,100,1920,100C1760,100,1600,100,1440,100C1280,100,1120,100,960,100C800,100,640,100,480,100C320,100,160,100,80,100L0,100Z"/></svg>